<?xml version="1.0" encoding="utf-8"?>
<!-- Generator: Adobe Illustrator 17.0.0, SVG Export Plug-In . SVG Version: 6.00 Build 0)  -->
<!DOCTYPE svg PUBLIC "-//W3C//DTD SVG 1.1//EN" "http://www.w3.org/Graphics/SVG/1.1/DTD/svg11.dtd">
<svg version="1.1" id="Layer_1" xmlns="http://www.w3.org/2000/svg" xmlns:xlink="http://www.w3.org/1999/xlink" x="0px" y="0px"
	 width="426.626px" height="346.634px" viewBox="0 0 426.626 346.634" enable-background="new 0 0 426.626 346.634"
	 xml:space="preserve">
<g>
	<path d="M242.288,247.109l-41.727-41.728v-55.934h25.344v45.439l34.304,34.302L242.288,247.109z M213.233,98.76
		c-55.986,0-101.373,45.387-101.373,101.373c0,55.986,45.387,101.374,101.373,101.374c55.988,0,101.372-45.387,101.372-101.374
		C314.606,144.147,269.221,98.76,213.233,98.76z M213.233,276.163c-41.989,0-76.03-34.039-76.03-76.03
		c0-41.99,34.04-76.03,76.03-76.03c41.99,0,76.03,34.04,76.03,76.03C289.263,242.124,255.224,276.163,213.233,276.163z"/>
</g>
<g>
	<path d="M399.962,53.329h-93.324C299.972,26.664,293.306,0,266.642,0H159.985c-26.664,0-33.33,26.664-39.996,53.329H26.664
		C11.999,53.329,0,65.329,0,79.993V319.97c0,14.664,11.999,26.664,26.664,26.664h373.298c14.665,0,26.664-12,26.664-26.664V79.993
		C426.626,65.329,414.627,53.329,399.962,53.329z M213.314,325.02c-69.058,0-125.04-55.982-125.04-125.039
		c0-69.058,55.982-125.039,125.04-125.039c69.059,0,125.039,55.981,125.039,125.039C338.353,269.041,282.373,325.02,213.314,325.02z
		 M399.962,133.321h-53.328v-26.664h53.328V133.321z"/>
</g>
</svg>
