<?xml version="1.0" encoding="utf-8"?>
<!-- Generator: Adobe Illustrator 17.0.0, SVG Export Plug-In . SVG Version: 6.00 Build 0)  -->
<!DOCTYPE svg PUBLIC "-//W3C//DTD SVG 1.1//EN" "http://www.w3.org/Graphics/SVG/1.1/DTD/svg11.dtd">
<svg version="1.1" id="Layer_1" xmlns="http://www.w3.org/2000/svg" xmlns:xlink="http://www.w3.org/1999/xlink" x="0px" y="0px"
	 width="426.626px" height="346.634px" viewBox="0 0 426.626 346.634" enable-background="new 0 0 426.626 346.634"
	 xml:space="preserve">
<g>
	<path d="M213.233,115.92c-46.509,0-84.213,37.703-84.213,84.213c0,46.509,37.704,84.213,84.213,84.213
		c46.509,0,84.213-37.703,84.213-84.213C297.446,153.624,259.742,115.92,213.233,115.92z M245.415,252.164l-46.218-46.219v-61.954
		h28.071v50.328l37.995,37.994L245.415,252.164z"/>
	<path d="M399.962,53.329h-93.324C299.972,26.664,293.306,0,266.642,0H159.985c-26.664,0-33.33,26.664-39.996,53.329H26.664
		C11.999,53.329,0,65.329,0,79.993V319.97c0,14.664,11.999,26.664,26.664,26.664h373.298c14.665,0,26.664-12,26.664-26.664V79.993
		C426.626,65.329,414.627,53.329,399.962,53.329z M213.233,312.417c-62.012,0-112.284-50.272-112.284-112.284
		c0-62.011,50.272-112.283,112.284-112.283c62.014,0,112.283,50.271,112.283,112.283S275.247,312.417,213.233,312.417z
		 M399.962,133.321h-53.328v-26.664h53.328V133.321z"/>
</g>
</svg>
