<?xml version="1.0" encoding="utf-8"?>
<!-- Generator: Adobe Illustrator 17.0.0, SVG Export Plug-In . SVG Version: 6.00 Build 0)  -->
<!DOCTYPE svg PUBLIC "-//W3C//DTD SVG 1.1//EN" "http://www.w3.org/Graphics/SVG/1.1/DTD/svg11.dtd">
<svg version="1.1" id="Layer_1" xmlns="http://www.w3.org/2000/svg" xmlns:xlink="http://www.w3.org/1999/xlink" x="0px" y="0px"
	 width="426.626px" height="346.634px" viewBox="0 0 426.626 346.634" enable-background="new 0 0 426.626 346.634"
	 xml:space="preserve"><g>
	<path stroke="#000000" stroke-width="3" d="M213.037,113.175c-47.566,0-86.128,38.581-86.128,86.174
		c0,47.593,38.562,86.174,86.128,86.174c47.567,0,86.128-38.581,86.128-86.174C299.165,151.756,260.604,113.175,213.037,113.175z
		 M245.749,253.006l-47.385-47.412v-63.552h28.781v51.628l38.956,38.974L245.749,253.006z"/>
	<path stroke="#000000" stroke-width="3" d="M399.962,53.329h-93.324C299.972,26.664,293.306,0,266.642,0H159.985
		c-26.664,0-33.33,26.664-39.996,53.329H26.664C11.999,53.329,0,65.329,0,79.993V319.97c0,14.664,11.999,26.664,26.664,26.664
		h373.298c14.665,0,26.664-12,26.664-26.664V79.993C426.627,65.329,414.627,53.329,399.962,53.329z M213.037,314.247
		c-63.422,0-114.837-51.443-114.837-114.899c0-63.456,51.415-114.898,114.837-114.898c63.424,0,114.837,51.442,114.837,114.898
		C327.874,262.805,276.461,314.247,213.037,314.247z M399.962,133.321h-53.328v-26.664h53.328V133.321z"/>
</g>
</svg>
